<?xml version="1.0" encoding="utf-8"?>
<!-- Generator: Adobe Illustrator 15.0.0, SVG Export Plug-In . SVG Version: 6.00 Build 0)  -->
<svg version="1.2" baseProfile="tiny" xmlns="http://www.w3.org/2000/svg" xmlns:xlink="http://www.w3.org/1999/xlink" x="0px"
	 y="0px" width="297.451px" height="190.89px" viewBox="0 0 297.451 190.89" xml:space="preserve">
<g id="Absenderkennung">
	<g>
		<rect x="175.066" y="134.348" fill="none" width="122.385" height="56.542"/>
		<path fill="#FFFFFF" d="M176.146,144.372v-10.021h3.453c0.779,0,1.373,0.048,1.783,0.144c0.574,0.132,1.064,0.372,1.471,0.718
			c0.527,0.447,0.924,1.018,1.186,1.712s0.393,1.489,0.393,2.382c0,0.761-0.088,1.436-0.266,2.023s-0.406,1.074-0.684,1.459
			c-0.279,0.385-0.582,0.688-0.914,0.909c-0.33,0.221-0.729,0.389-1.195,0.502s-1.004,0.171-1.609,0.171H176.146z M177.473,143.189
			h2.141c0.66,0,1.178-0.062,1.555-0.185c0.375-0.123,0.676-0.296,0.898-0.52c0.314-0.314,0.561-0.737,0.734-1.268
			c0.176-0.531,0.264-1.175,0.264-1.931c0-1.048-0.172-1.854-0.516-2.417s-0.762-0.94-1.254-1.131
			c-0.355-0.137-0.928-0.205-1.717-0.205h-2.105V143.189z"/>
		<path fill="#FFFFFF" d="M186.277,144.372v-10.021h4.443c0.895,0,1.572,0.09,2.037,0.27s0.836,0.498,1.115,0.954
			c0.277,0.456,0.416,0.959,0.416,1.511c0,0.711-0.23,1.31-0.689,1.798c-0.461,0.488-1.172,0.797-2.133,0.93
			c0.35,0.168,0.617,0.335,0.799,0.499c0.389,0.355,0.754,0.8,1.102,1.333l1.742,2.728h-1.668l-1.326-2.085
			c-0.387-0.602-0.705-1.062-0.957-1.381c-0.25-0.319-0.475-0.542-0.674-0.67c-0.197-0.127-0.398-0.216-0.604-0.267
			c-0.15-0.032-0.396-0.048-0.738-0.048h-1.539v4.45H186.277z M187.604,138.773h2.852c0.605,0,1.08-0.063,1.422-0.188
			s0.602-0.326,0.779-0.602s0.266-0.575,0.266-0.899c0-0.474-0.172-0.864-0.516-1.169s-0.887-0.458-1.631-0.458h-3.172V138.773z"/>
		<path fill="#FFFFFF" d="M196.313,144.372v-10.021h1.326v4.97l4.977-4.97h1.799l-4.205,4.061l4.389,5.961h-1.75l-3.568-5.072
			l-1.641,1.6v3.473H196.313z"/>
		<path fill="#FFFFFF" d="M205.07,141.364v-1.237h3.779v1.237H205.07z"/>
		<path fill="#FFFFFF" d="M209.965,139.491c0-1.664,0.445-2.966,1.34-3.907c0.893-0.941,2.045-1.412,3.459-1.412
			c0.924,0,1.758,0.221,2.502,0.663c0.742,0.442,1.309,1.059,1.697,1.849c0.391,0.791,0.586,1.688,0.586,2.69
			c0,1.016-0.205,1.925-0.615,2.728s-0.992,1.409-1.744,1.822s-1.563,0.619-2.434,0.619c-0.943,0-1.785-0.228-2.529-0.684
			c-0.742-0.456-1.305-1.078-1.688-1.866S209.965,140.371,209.965,139.491z M211.332,139.512c0,1.208,0.324,2.159,0.973,2.854
			c0.65,0.695,1.465,1.042,2.445,1.042c0.998,0,1.818-0.351,2.463-1.053c0.646-0.702,0.969-1.698,0.969-2.987
			c0-0.816-0.139-1.528-0.414-2.136s-0.68-1.08-1.211-1.415c-0.529-0.335-1.125-0.502-1.787-0.502c-0.938,0-1.746,0.322-2.424,0.967
			C211.67,136.927,211.332,138.003,211.332,139.512z"/>
		<path fill="#FFFFFF" d="M221.086,144.372v-7.26h1.107v1.101c0.283-0.515,0.543-0.854,0.783-1.019
			c0.238-0.164,0.502-0.246,0.789-0.246c0.416,0,0.836,0.132,1.266,0.396l-0.424,1.142c-0.301-0.178-0.602-0.267-0.902-0.267
			c-0.27,0-0.512,0.081-0.725,0.243c-0.215,0.162-0.367,0.386-0.459,0.673c-0.137,0.438-0.205,0.916-0.205,1.436v3.801H221.086z"/>
		<path fill="#FFFFFF" d="M228.449,143.271l0.178,1.087c-0.348,0.073-0.656,0.109-0.93,0.109c-0.447,0-0.793-0.071-1.039-0.212
			s-0.42-0.327-0.52-0.557c-0.102-0.23-0.15-0.714-0.15-1.453v-4.177h-0.902v-0.957h0.902v-1.798l1.223-0.738v2.536h1.238v0.957
			h-1.238v4.245c0,0.351,0.021,0.577,0.064,0.677c0.045,0.1,0.115,0.18,0.213,0.239s0.238,0.089,0.42,0.089
			C228.045,143.319,228.225,143.303,228.449,143.271z"/>
		<path fill="#FFFFFF" d="M229.16,142.205l1.217-0.191c0.068,0.488,0.258,0.861,0.57,1.121s0.748,0.39,1.309,0.39
			c0.566,0,0.984-0.115,1.258-0.345s0.41-0.5,0.41-0.81c0-0.278-0.121-0.497-0.361-0.656c-0.17-0.109-0.588-0.249-1.258-0.417
			c-0.902-0.228-1.529-0.425-1.877-0.591c-0.35-0.167-0.613-0.396-0.793-0.69s-0.27-0.619-0.27-0.974
			c0-0.324,0.074-0.623,0.221-0.899c0.148-0.276,0.352-0.505,0.605-0.687c0.191-0.141,0.453-0.261,0.783-0.359
			s0.686-0.147,1.063-0.147c0.57,0,1.07,0.082,1.5,0.246c0.432,0.164,0.75,0.386,0.955,0.667s0.346,0.655,0.424,1.125l-1.203,0.164
			c-0.055-0.374-0.213-0.666-0.477-0.875c-0.262-0.209-0.631-0.314-1.109-0.314c-0.566,0-0.969,0.093-1.211,0.28
			c-0.24,0.187-0.361,0.406-0.361,0.656c0,0.16,0.049,0.303,0.15,0.431c0.1,0.132,0.258,0.242,0.471,0.328
			c0.123,0.045,0.486,0.15,1.088,0.314c0.869,0.232,1.477,0.423,1.82,0.571c0.346,0.148,0.615,0.363,0.811,0.646
			c0.197,0.283,0.295,0.633,0.295,1.053c0,0.41-0.121,0.796-0.359,1.159c-0.24,0.362-0.584,0.643-1.035,0.841
			s-0.963,0.297-1.531,0.297c-0.943,0-1.662-0.196-2.158-0.588C229.611,143.556,229.297,142.975,229.16,142.205z"/>
		<path fill="#FFFFFF" d="M238.668,144.372l-2.762-7.26h1.299l1.559,4.348c0.17,0.469,0.324,0.957,0.465,1.463
			c0.109-0.383,0.262-0.843,0.459-1.381l1.613-4.43h1.264l-2.748,7.26H238.668z"/>
		<path fill="#FFFFFF" d="M248.621,142.034l1.271,0.157c-0.199,0.743-0.572,1.319-1.113,1.729c-0.543,0.41-1.236,0.615-2.078,0.615
			c-1.063,0-1.904-0.327-2.527-0.981c-0.621-0.654-0.932-1.571-0.932-2.751c0-1.221,0.314-2.169,0.943-2.844
			s1.443-1.012,2.447-1.012c0.971,0,1.764,0.331,2.379,0.991s0.922,1.59,0.922,2.789c0,0.073-0.002,0.182-0.006,0.328h-5.414
			c0.045,0.797,0.271,1.408,0.676,1.832c0.406,0.424,0.912,0.636,1.518,0.636c0.451,0,0.836-0.119,1.156-0.355
			C248.182,142.932,248.436,142.554,248.621,142.034z M244.582,140.045h4.053c-0.055-0.611-0.209-1.069-0.465-1.374
			c-0.391-0.474-0.9-0.711-1.523-0.711c-0.566,0-1.041,0.189-1.426,0.567S244.623,139.412,244.582,140.045z"/>
		<path fill="#FFFFFF" d="M251.424,144.372v-7.26h1.107v1.101c0.283-0.515,0.543-0.854,0.783-1.019
			c0.238-0.164,0.502-0.246,0.789-0.246c0.416,0,0.836,0.132,1.266,0.396l-0.424,1.142c-0.301-0.178-0.602-0.267-0.902-0.267
			c-0.27,0-0.512,0.081-0.725,0.243c-0.215,0.162-0.367,0.386-0.459,0.673c-0.137,0.438-0.205,0.916-0.205,1.436v3.801H251.424z"/>
		<path fill="#FFFFFF" d="M261.07,142.034l1.271,0.157c-0.201,0.743-0.572,1.319-1.115,1.729c-0.541,0.41-1.234,0.615-2.078,0.615
			c-1.061,0-1.904-0.327-2.525-0.981c-0.623-0.654-0.934-1.571-0.934-2.751c0-1.221,0.314-2.169,0.943-2.844
			s1.445-1.012,2.447-1.012c0.971,0,1.764,0.331,2.379,0.991s0.924,1.59,0.924,2.789c0,0.073-0.002,0.182-0.008,0.328h-5.414
			c0.047,0.797,0.271,1.408,0.678,1.832c0.404,0.424,0.91,0.636,1.518,0.636c0.451,0,0.836-0.119,1.154-0.355
			C260.631,142.932,260.883,142.554,261.07,142.034z M257.029,140.045h4.055c-0.055-0.611-0.211-1.069-0.465-1.374
			c-0.393-0.474-0.9-0.711-1.525-0.711c-0.564,0-1.039,0.189-1.426,0.567C257.283,138.906,257.07,139.412,257.029,140.045z"/>
		<path fill="#FFFFFF" d="M263.893,135.766v-1.415h1.23v1.415H263.893z M263.893,144.372v-7.26h1.23v7.26H263.893z"/>
		<path fill="#FFFFFF" d="M266.996,144.372v-7.26h1.107v1.032c0.533-0.797,1.305-1.196,2.311-1.196c0.438,0,0.84,0.079,1.207,0.236
			s0.641,0.363,0.824,0.619c0.182,0.255,0.309,0.558,0.383,0.909c0.045,0.228,0.068,0.626,0.068,1.196v4.464h-1.23v-4.416
			c0-0.501-0.049-0.876-0.145-1.125s-0.266-0.447-0.51-0.595c-0.242-0.148-0.529-0.222-0.857-0.222
			c-0.523,0-0.977,0.167-1.357,0.499c-0.379,0.333-0.57,0.964-0.57,1.894v3.965H266.996z"/>
		<path fill="#FFFFFF" d="M176.168,160.372v-10.021h4.443c0.893,0,1.572,0.09,2.037,0.27s0.836,0.498,1.113,0.954
			c0.279,0.456,0.418,0.959,0.418,1.511c0,0.711-0.23,1.31-0.691,1.798c-0.459,0.488-1.17,0.797-2.133,0.93
			c0.352,0.168,0.617,0.334,0.801,0.499c0.387,0.355,0.754,0.801,1.1,1.334l1.744,2.727h-1.668l-1.326-2.084
			c-0.389-0.602-0.707-1.063-0.957-1.381c-0.252-0.319-0.477-0.543-0.674-0.67c-0.199-0.128-0.4-0.217-0.605-0.267
			c-0.15-0.032-0.396-0.048-0.738-0.048h-1.537v4.45H176.168z M177.494,154.773h2.85c0.607,0,1.08-0.063,1.422-0.188
			s0.602-0.326,0.779-0.602s0.268-0.575,0.268-0.899c0-0.474-0.172-0.864-0.518-1.169c-0.344-0.305-0.887-0.458-1.629-0.458h-3.172
			V154.773z"/>
		<path fill="#FFFFFF" d="M190.838,159.477c-0.457,0.387-0.895,0.66-1.316,0.82c-0.422,0.159-0.873,0.238-1.357,0.238
			c-0.797,0-1.41-0.194-1.838-0.584c-0.43-0.39-0.643-0.888-0.643-1.494c0-0.355,0.08-0.68,0.242-0.974s0.373-0.53,0.635-0.708
			c0.264-0.178,0.559-0.312,0.887-0.402c0.24-0.064,0.605-0.126,1.094-0.186c0.992-0.118,1.725-0.259,2.193-0.423
			c0.006-0.168,0.008-0.276,0.008-0.321c0-0.501-0.117-0.854-0.35-1.06c-0.314-0.278-0.781-0.417-1.4-0.417
			c-0.58,0-1.006,0.102-1.283,0.304c-0.275,0.203-0.479,0.562-0.611,1.077l-1.203-0.164c0.109-0.515,0.289-0.931,0.541-1.248
			c0.25-0.317,0.613-0.561,1.086-0.731c0.475-0.171,1.023-0.256,1.648-0.256c0.619,0,1.123,0.073,1.51,0.219
			c0.389,0.146,0.672,0.329,0.855,0.55c0.182,0.221,0.309,0.5,0.383,0.837c0.041,0.209,0.061,0.588,0.061,1.135v1.641
			c0,1.144,0.027,1.867,0.078,2.17c0.053,0.303,0.156,0.594,0.313,0.871h-1.285C190.955,160.117,190.873,159.819,190.838,159.477z
			 M190.734,156.729c-0.445,0.182-1.115,0.337-2.01,0.465c-0.506,0.072-0.863,0.154-1.072,0.246
			c-0.211,0.091-0.371,0.225-0.486,0.399c-0.113,0.175-0.17,0.37-0.17,0.585c0,0.328,0.123,0.602,0.371,0.82
			c0.25,0.219,0.613,0.328,1.092,0.328c0.473,0,0.895-0.104,1.264-0.312s0.641-0.491,0.814-0.851
			c0.131-0.278,0.197-0.688,0.197-1.23V156.729z"/>
		<path fill="#FFFFFF" d="M195.902,160.372l-2.762-7.259h1.299l1.559,4.347c0.17,0.47,0.324,0.957,0.465,1.463
			c0.109-0.383,0.262-0.843,0.459-1.381l1.613-4.429h1.264l-2.748,7.259H195.902z"/>
		<path fill="#FFFFFF" d="M205.855,158.034l1.271,0.158c-0.199,0.742-0.572,1.318-1.113,1.729c-0.543,0.41-1.236,0.615-2.078,0.615
			c-1.063,0-1.904-0.326-2.527-0.98c-0.621-0.654-0.932-1.571-0.932-2.752c0-1.221,0.314-2.169,0.943-2.843s1.443-1.012,2.447-1.012
			c0.971,0,1.764,0.331,2.379,0.991s0.922,1.59,0.922,2.79c0,0.072-0.002,0.182-0.006,0.328h-5.414
			c0.045,0.797,0.271,1.408,0.676,1.832c0.406,0.424,0.912,0.635,1.518,0.635c0.451,0,0.836-0.118,1.156-0.355
			C205.416,158.932,205.67,158.553,205.855,158.034z M201.816,156.045h4.053c-0.055-0.611-0.209-1.069-0.465-1.375
			c-0.391-0.474-0.9-0.711-1.523-0.711c-0.566,0-1.041,0.189-1.426,0.567S201.857,155.412,201.816,156.045z"/>
		<path fill="#FFFFFF" d="M208.672,160.372v-7.259h1.107v1.032c0.533-0.797,1.305-1.196,2.311-1.196c0.438,0,0.84,0.079,1.207,0.236
			s0.641,0.363,0.824,0.619c0.182,0.255,0.309,0.558,0.383,0.909c0.045,0.228,0.068,0.626,0.068,1.196v4.463h-1.23v-4.416
			c0-0.501-0.049-0.876-0.145-1.125s-0.266-0.447-0.51-0.595c-0.242-0.148-0.529-0.222-0.857-0.222
			c-0.523,0-0.977,0.167-1.357,0.499c-0.379,0.333-0.57,0.964-0.57,1.893v3.965H208.672z"/>
		<path fill="#FFFFFF" d="M215.967,158.206l1.217-0.191c0.068,0.487,0.258,0.861,0.57,1.121s0.748,0.389,1.309,0.389
			c0.566,0,0.984-0.115,1.258-0.345s0.41-0.5,0.41-0.81c0-0.278-0.121-0.497-0.361-0.656c-0.17-0.109-0.588-0.249-1.258-0.418
			c-0.902-0.228-1.529-0.424-1.877-0.591c-0.35-0.167-0.613-0.396-0.793-0.69s-0.27-0.619-0.27-0.974
			c0-0.324,0.074-0.623,0.221-0.899c0.148-0.276,0.352-0.505,0.605-0.687c0.191-0.141,0.453-0.261,0.783-0.359
			s0.686-0.147,1.063-0.147c0.57,0,1.07,0.082,1.5,0.246c0.432,0.164,0.75,0.386,0.955,0.667s0.346,0.655,0.424,1.125l-1.203,0.164
			c-0.055-0.374-0.213-0.666-0.477-0.875c-0.262-0.209-0.631-0.314-1.109-0.314c-0.566,0-0.969,0.093-1.211,0.28
			c-0.24,0.187-0.361,0.406-0.361,0.656c0,0.16,0.049,0.303,0.15,0.431c0.1,0.132,0.258,0.242,0.471,0.328
			c0.123,0.045,0.486,0.15,1.088,0.314c0.869,0.232,1.477,0.423,1.82,0.571c0.346,0.147,0.615,0.363,0.811,0.646
			c0.197,0.283,0.295,0.634,0.295,1.053c0,0.41-0.121,0.797-0.359,1.159c-0.24,0.362-0.584,0.643-1.035,0.841
			s-0.963,0.297-1.531,0.297c-0.943,0-1.662-0.195-2.158-0.588C216.418,159.556,216.104,158.975,215.967,158.206z"/>
		<path fill="#FFFFFF" d="M224.594,160.372h-1.143v-10.021h1.23v3.575c0.52-0.652,1.184-0.978,1.99-0.978
			c0.445,0,0.869,0.09,1.268,0.27s0.727,0.433,0.984,0.759s0.459,0.719,0.605,1.179c0.145,0.46,0.219,0.953,0.219,1.477
			c0,1.244-0.309,2.205-0.924,2.885c-0.615,0.679-1.354,1.018-2.215,1.018c-0.855,0-1.529-0.357-2.016-1.072V160.372z
			 M224.58,156.688c0,0.87,0.117,1.499,0.355,1.887c0.387,0.633,0.91,0.949,1.572,0.949c0.537,0,1.002-0.232,1.395-0.7
			c0.391-0.468,0.588-1.163,0.588-2.089c0-0.947-0.189-1.647-0.564-2.098c-0.377-0.451-0.83-0.677-1.363-0.677
			c-0.539,0-1.004,0.233-1.395,0.701C224.775,155.128,224.58,155.803,224.58,156.688z"/>
		<path fill="#FFFFFF" d="M236.002,160.372v-1.066c-0.564,0.82-1.332,1.23-2.303,1.23c-0.43,0-0.828-0.082-1.201-0.246
			c-0.371-0.164-0.646-0.369-0.826-0.618s-0.307-0.553-0.379-0.913c-0.051-0.241-0.076-0.624-0.076-1.148v-4.498h1.23v4.027
			c0,0.643,0.025,1.075,0.076,1.299c0.076,0.323,0.24,0.577,0.492,0.762c0.25,0.185,0.561,0.277,0.93,0.277s0.715-0.096,1.039-0.284
			c0.322-0.188,0.553-0.446,0.686-0.772c0.135-0.326,0.203-0.799,0.203-1.418v-3.89h1.23v7.259H236.002z"/>
		<path fill="#FFFFFF" d="M239.018,160.372v-7.259h1.107v1.101c0.281-0.515,0.543-0.854,0.781-1.019
			c0.24-0.164,0.504-0.246,0.791-0.246c0.414,0,0.836,0.132,1.264,0.396l-0.424,1.142c-0.301-0.178-0.602-0.267-0.902-0.267
			c-0.268,0-0.51,0.081-0.725,0.243c-0.213,0.162-0.367,0.386-0.457,0.673c-0.137,0.438-0.205,0.916-0.205,1.435v3.801H239.018z"/>
		<path fill="#FFFFFF" d="M243.467,160.973l1.197,0.178c0.049,0.369,0.189,0.639,0.416,0.807c0.307,0.229,0.723,0.342,1.252,0.342
			c0.568,0,1.01-0.113,1.318-0.342c0.311-0.228,0.52-0.547,0.629-0.957c0.064-0.25,0.094-0.776,0.09-1.578
			c-0.539,0.633-1.209,0.949-2.01,0.949c-0.998,0-1.771-0.359-2.318-1.08c-0.547-0.72-0.82-1.583-0.82-2.59
			c0-0.693,0.125-1.333,0.377-1.918c0.25-0.585,0.613-1.038,1.09-1.357s1.035-0.479,1.678-0.479c0.857,0,1.564,0.346,2.119,1.039
			v-0.875h1.135v6.275c0,1.131-0.115,1.932-0.346,2.403c-0.229,0.472-0.594,0.845-1.094,1.118c-0.498,0.273-1.111,0.41-1.842,0.41
			c-0.865,0-1.564-0.195-2.098-0.585S243.449,161.757,243.467,160.973z M244.486,156.612c0,0.953,0.189,1.648,0.566,2.086
			c0.379,0.438,0.854,0.656,1.422,0.656c0.566,0,1.039-0.219,1.422-0.653s0.574-1.118,0.574-2.048c0-0.888-0.197-1.558-0.592-2.009
			c-0.393-0.451-0.869-0.677-1.424-0.677c-0.547,0-1.012,0.222-1.395,0.667S244.486,155.737,244.486,156.612z"/>
		<path fill="#FFFFFF" d="M260.338,158.034l1.271,0.158c-0.199,0.742-0.572,1.318-1.113,1.729c-0.543,0.41-1.236,0.615-2.078,0.615
			c-1.063,0-1.904-0.326-2.527-0.98c-0.621-0.654-0.932-1.571-0.932-2.752c0-1.221,0.314-2.169,0.943-2.843s1.443-1.012,2.447-1.012
			c0.971,0,1.764,0.331,2.379,0.991s0.922,1.59,0.922,2.79c0,0.072-0.002,0.182-0.006,0.328h-5.414
			c0.045,0.797,0.271,1.408,0.676,1.832c0.406,0.424,0.912,0.635,1.518,0.635c0.451,0,0.836-0.118,1.156-0.355
			C259.898,158.932,260.152,158.553,260.338,158.034z M256.299,156.045h4.053c-0.055-0.611-0.209-1.069-0.465-1.375
			c-0.391-0.474-0.9-0.711-1.523-0.711c-0.566,0-1.041,0.189-1.426,0.567S256.34,155.412,256.299,156.045z"/>
		<path fill="#FFFFFF" d="M263.504,160.372v-1.4h1.4v1.4H263.504z"/>
		<path fill="#FFFFFF" d="M270.066,160.372l-3.883-10.021h1.436l2.604,7.281c0.211,0.583,0.385,1.13,0.527,1.641
			c0.154-0.547,0.334-1.094,0.539-1.641l2.707-7.281h1.354l-3.924,10.021H270.066z"/>
		<path fill="#FFFFFF" d="M275.445,160.372v-1.4h1.402v1.4H275.445z"/>
	</g>
	<path id="Wortmarke" fill="#FFFFFF" d="M66.723,134.114h5.039c3.026,0,5.3,1.897,5.3,5.775c0,3.386-1.733,5.906-5.3,5.906h-5.039
		V134.114z M69.292,143.635h2.291c1.489,0,2.911-0.916,2.911-3.501c0-2.355-0.817-3.86-3.37-3.86h-1.832V143.635z M80.384,142.13
		c0.064,1.472,0.785,2.143,2.077,2.143c0.933,0,1.686-0.572,1.832-1.096h2.045c-0.654,1.996-2.045,2.847-3.959,2.847
		c-2.667,0-4.319-1.832-4.319-4.45c0-2.535,1.751-4.466,4.319-4.466c2.88,0,4.27,2.421,4.106,5.022H80.384z M84.162,140.658
		c-0.212-1.178-0.72-1.8-1.849-1.8c-1.473,0-1.897,1.145-1.93,1.8H84.162z M95.794,145.795h-2.209v-1.178h-0.049
		c-0.589,0.949-1.604,1.407-2.585,1.407c-2.47,0-3.092-1.391-3.092-3.484v-5.202h2.323v4.776c0,1.391,0.408,2.078,1.488,2.078
		c1.26,0,1.8-0.703,1.8-2.421v-4.433h2.323V145.795z M100.603,137.337h1.702v1.553h-1.702v4.189c0,0.785,0.197,0.981,0.982,0.981
		c0.245,0,0.475-0.017,0.72-0.065v1.816c-0.393,0.065-0.9,0.082-1.358,0.082c-1.423,0-2.666-0.327-2.666-2.012v-4.99h-1.407v-1.553
		h1.407v-2.536h2.322V137.337z M105.364,143.047c0.016,1.014,0.866,1.423,1.783,1.423c0.67,0,1.521-0.262,1.521-1.08
		c0-0.703-0.965-0.948-2.634-1.308c-1.341-0.294-2.684-0.769-2.684-2.258c0-2.159,1.865-2.715,3.682-2.715
		c1.849,0,3.55,0.622,3.73,2.699h-2.209c-0.065-0.899-0.752-1.145-1.587-1.145c-0.523,0-1.292,0.098-1.292,0.785
		c0,0.834,1.308,0.948,2.634,1.259c1.357,0.311,2.684,0.802,2.684,2.373c0,2.225-1.931,2.944-3.861,2.944
		c-1.964,0-3.877-0.736-3.977-2.977H105.364z M117.992,140.315c-0.146-0.949-0.752-1.457-1.717-1.457
		c-1.489,0-1.98,1.505-1.98,2.749c0,1.211,0.475,2.667,1.931,2.667c1.079,0,1.701-0.688,1.85-1.718h2.24
		c-0.294,2.242-1.848,3.468-4.073,3.468c-2.552,0-4.271-1.8-4.271-4.335c0-2.634,1.571-4.58,4.319-4.58
		c1.996,0,3.828,1.047,3.976,3.207H117.992z M121.625,134.114h2.322v4.4h0.05c0.589-0.949,1.603-1.406,2.47-1.406
		c2.471,0,3.092,1.39,3.092,3.485v5.202h-2.322v-4.777c0-1.391-0.409-2.078-1.489-2.078c-1.26,0-1.8,0.704-1.8,2.422v4.433h-2.322
		V134.114z M133.125,142.13c0.065,1.472,0.785,2.143,2.078,2.143c0.933,0,1.685-0.572,1.832-1.096h2.045
		c-0.654,1.996-2.045,2.847-3.96,2.847c-2.665,0-4.318-1.832-4.318-4.45c0-2.535,1.75-4.466,4.318-4.466
		c2.88,0,4.271,2.421,4.107,5.022H133.125z M136.904,140.658c-0.213-1.178-0.721-1.8-1.849-1.8c-1.473,0-1.898,1.145-1.931,1.8
		H136.904z M142.401,143.047c0.016,1.014,0.867,1.423,1.783,1.423c0.671,0,1.521-0.262,1.521-1.08c0-0.703-0.966-0.948-2.635-1.308
		c-1.342-0.294-2.682-0.769-2.682-2.258c0-2.159,1.864-2.715,3.68-2.715c1.85,0,3.551,0.622,3.73,2.699h-2.209
		c-0.064-0.899-0.752-1.145-1.586-1.145c-0.524,0-1.293,0.098-1.293,0.785c0,0.834,1.31,0.948,2.634,1.259
		c1.358,0.311,2.684,0.802,2.684,2.373c0,2.225-1.931,2.944-3.861,2.944c-1.963,0-3.878-0.736-3.976-2.977H142.401z M66.723,164.724
		h2.568v4.843l4.565-4.843h3.205l-4.563,4.613l5.006,7.067H74.28l-3.517-5.251l-1.472,1.488v3.763h-2.568V164.724z M78.288,167.947
		h2.209v1.571h0.033c0.426-1.063,1.57-1.801,2.699-1.801c0.163,0,0.359,0.033,0.507,0.083v2.158
		c-0.212-0.049-0.556-0.081-0.834-0.081c-1.701,0-2.29,1.228-2.29,2.716v3.812h-2.324V167.947z M86.275,172.741
		c0.065,1.472,0.785,2.143,2.077,2.143c0.933,0,1.686-0.572,1.833-1.096h2.045c-0.655,1.996-2.045,2.847-3.96,2.847
		c-2.666,0-4.318-1.832-4.318-4.45c0-2.536,1.75-4.467,4.318-4.467c2.88,0,4.271,2.422,4.107,5.023H86.275z M90.055,171.268
		c-0.213-1.178-0.721-1.8-1.849-1.8c-1.473,0-1.898,1.146-1.931,1.8H90.055z M101.539,176.405H99.33v-1.178h-0.05
		c-0.589,0.949-1.603,1.407-2.584,1.407c-2.471,0-3.092-1.391-3.092-3.484v-5.203h2.322v4.777c0,1.391,0.409,2.078,1.489,2.078
		c1.26,0,1.8-0.704,1.8-2.422v-4.434h2.323V176.405z M102.814,174.654l4.4-4.956h-4.073v-1.751h7.133v1.751l-4.401,4.956h4.712
		v1.751h-7.771V174.654z M66.723,149.419h6.298c2.094,0,3.419,1.457,3.419,3.223c0,1.375-0.557,2.405-1.849,2.929v0.032
		c1.26,0.328,1.62,1.555,1.702,2.732c0.049,0.736,0.032,2.11,0.49,2.765h-2.568c-0.311-0.736-0.277-1.865-0.409-2.798
		c-0.181-1.227-0.654-1.767-1.946-1.767h-2.569v4.564h-2.568V149.419z M69.292,154.704h2.813c1.146,0,1.768-0.491,1.768-1.669
		c0-1.129-0.621-1.619-1.768-1.619h-2.813V154.704z M82.183,152.413c2.666,0,4.384,1.767,4.384,4.467
		c0,2.682-1.718,4.449-4.384,4.449c-2.65,0-4.368-1.768-4.368-4.449C77.814,154.18,79.532,152.413,82.183,152.413z M82.183,159.579
		c1.587,0,2.062-1.357,2.062-2.698c0-1.358-0.475-2.717-2.062-2.717c-1.57,0-2.045,1.358-2.045,2.717
		C80.138,158.221,80.612,159.579,82.183,159.579z M90.983,152.642h1.702v1.555h-1.702v4.188c0,0.785,0.197,0.981,0.982,0.981
		c0.245,0,0.475-0.017,0.72-0.065v1.816c-0.393,0.065-0.9,0.082-1.357,0.082c-1.424,0-2.667-0.328-2.667-2.013v-4.989h-1.407v-1.555
		h1.407v-2.536h2.322V152.642z M95.761,157.435c0.065,1.474,0.785,2.144,2.078,2.144c0.932,0,1.685-0.572,1.832-1.096h2.045
		c-0.654,1.996-2.045,2.847-3.959,2.847c-2.667,0-4.319-1.833-4.319-4.449c0-2.537,1.75-4.467,4.319-4.467
		c2.879,0,4.27,2.421,4.106,5.022H95.761z M99.54,155.963c-0.213-1.178-0.721-1.8-1.849-1.8c-1.473,0-1.898,1.146-1.931,1.8H99.54z
		 M105.036,158.352c0.017,1.014,0.867,1.423,1.783,1.423c0.672,0,1.522-0.262,1.522-1.079c0-0.704-0.966-0.95-2.635-1.309
		c-1.342-0.295-2.683-0.77-2.683-2.258c0-2.16,1.864-2.716,3.681-2.716c1.849,0,3.55,0.622,3.73,2.699h-2.209
		c-0.064-0.899-0.752-1.145-1.587-1.145c-0.523,0-1.292,0.099-1.292,0.785c0,0.834,1.309,0.949,2.633,1.261
		c1.358,0.311,2.684,0.801,2.684,2.371c0,2.226-1.93,2.945-3.86,2.945c-1.964,0-3.878-0.736-3.976-2.978H105.036z"/>
	<path id="Kontur" fill="#FFFFFF" d="M42.749,147.041v-14.173H26.308v14.173H12.135v16.44h14.173v14.174h16.441v-14.174h14.173
		v-16.44H42.749z"/>
	<path id="Bildmarke" fill="#E60005" d="M55.673,148.288v14.097H41.577v14.021H27.48v-14.097H13.383v-14.097H27.48v-14.097h14.097
		v14.097v0.077H55.673z"/>
	<line fill="#FFFFFF" stroke="#FFFFFF" x1="161.451" y1="134.524" x2="161.451" y2="176.024"/>
</g>
<g id="Silhouette">
	<path fill="none" stroke="#FFFFFF" stroke-miterlimit="10" d="M0.122,115.698l42.888-10.799h23.893V87.8h3.069v-3.288h2.74v-4.494
		h3.728v-3.617h2.958v-5.48l6.762,0.019l0.042,5.5l3.062-0.039v3.397h3.726v4.494h3.398v3.727h3.069v19.729h12.494v-5.042h3.947
		v-5.589h4.055v-3.945h4.056v-4.932h6.905v4.932h7.124v-3.069h-1.753v-3.398h1.753V84.95h1.535v-2.191l1.464,0.015l0.042-3.708
		l1.233-0.034v3.727h1.425v1.972h1.863v1.754h1.646v3.397h-2.083v3.289h8.987V51.192h-4.712V32.341h5.261l0.005,3.683l2.083-0.042
		l-0.007-3.642h5.48l-0.015,3.642h1.333l-0.003-19.753h11.51v7.124h-10.962l-0.002,12.629l1.5-0.042l0.038-3.6h5.59v3.617h2.631
		l0.033-3.684h4.958l0.05,18.59h-5.48v43.074l6.468,6.467v-13.59h-1.645l4.165-5.042l3.617,4.822h-2.083v2.522h3.178V74.867h-3.507
		v-5.919h2.191v-2.52h2.303v-1.973h1.535v-2.192h1.424v-4.056l1.784-0.016l0.042,4.083l1.461-0.011v2.083h1.207v2.411h2.192v1.37
		h2.083v6.631h-3.069v13.92h2.301v-2.521h-1.205l3.507-4.055l3.507,3.835l-1.733-0.038l-0.042,20l1.118-0.014v1.534h2.193v1.206
		h0.548l3.286-3.397v-14.03h2.303v-2.521h2.74v-2.85h1.425v-2.302h1.535v-2.083h1.753V79.36h1.096v-1.535h4.604v1.973h1.424v2.083
		h1.535v1.863h1.424v1.973h1.863v2.74h2.302v2.412h2.083v5.261h12.823v1.645h2.082v2.301h1.535v1.864h2.081v1.973h1.317v1.973h1.533
		v13.042h8.221v-1.535h-3.508v-3.397h3.508v-2.083h-3.397v-1.973h1.534l6.796-6.576v-5.479h0.877v5.589l6.192,6.192h2.904
		l-0.022,2.316l-4.209,0.042l-0.044,1.424h4.275v3.616h-4.275v2.96h20.877"/>
</g>
<g id="Hilfslinien">
</g>
</svg>
