<?xml version="1.0" encoding="utf-8"?>
<!-- Generator: Adobe Illustrator 15.0.0, SVG Export Plug-In . SVG Version: 6.00 Build 0)  -->
<svg version="1.2" baseProfile="tiny" id="Ebene_1" xmlns="http://www.w3.org/2000/svg" xmlns:xlink="http://www.w3.org/1999/xlink"
	 x="0px" y="0px" width="708.66px" height="190.89px" viewBox="0 0 708.66 190.89" xml:space="preserve">
<g>
	<rect x="9.101" y="85.777" fill="none" width="693.122" height="74.604"/>
	<path fill="#FFFFFF" d="M20.701,90.937l-6.88,0.24l-1.4,8.36h-2.64l0.68-10.721h24.92l0.48,10.721h-2.52l-1.32-8.36l-6.92-0.24
		v25.24l5.68,0.399v1.961H15.5v-1.961l5.2-0.399V90.937z"/>
	<path fill="#FFFFFF" d="M41.04,115.816c-1.693-2.105-2.54-4.92-2.54-8.439c0-2.32,0.44-4.36,1.32-6.12
		c0.88-1.761,2.113-3.12,3.7-4.08c1.586-0.96,3.393-1.44,5.42-1.44c2.48,0,4.406,0.687,5.78,2.06c1.373,1.373,2.1,3.34,2.18,5.9
		c0,1.627-0.094,2.866-0.28,3.719H42.86c0.053,2.641,0.666,4.768,1.84,6.381c1.173,1.613,2.84,2.42,5,2.42
		c1.066,0,2.18-0.193,3.34-0.58c1.16-0.387,2.06-0.846,2.7-1.38l0.76,1.76c-0.774,0.8-1.92,1.493-3.44,2.079
		c-1.52,0.588-3.067,0.881-4.64,0.881C45.193,118.977,42.733,117.924,41.04,115.816z M52.5,105.297
		c0.08-0.561,0.12-1.133,0.12-1.721c-0.027-1.732-0.394-3.1-1.1-4.1c-0.707-1-1.82-1.5-3.34-1.5c-1.547,0-2.78,0.561-3.7,1.68
		c-0.92,1.121-1.447,3-1.58,5.641H52.5z"/>
	<path fill="#FFFFFF" d="M60.42,116.576l3-0.24v-16.92l-2.88-0.719v-2.16l5.52-0.721h0.08l0.88,0.721v0.72l-0.12,3.12h0.12
		c0.266-0.453,0.746-1.041,1.44-1.76c0.693-0.721,1.586-1.381,2.68-1.98c1.093-0.6,2.28-0.9,3.56-0.9c0.533,0,0.973,0.067,1.32,0.2
		v4.479c-0.187-0.133-0.487-0.26-0.9-0.379c-0.414-0.121-0.874-0.181-1.38-0.181c-2.214,0-4.267,0.681-6.16,2.04v14.4l5.08,0.32
		v1.92H60.42V116.576z"/>
	<path fill="#FFFFFF" d="M78.62,116.576l2.44-0.359V99.416l-2.88-0.719v-2.16l5.72-0.721l0.72,0.52l0.24,1.601l-0.04,1.28
		c0.933-0.854,2.206-1.633,3.82-2.34c1.613-0.707,3.06-1.061,4.34-1.061c1.44,0,2.6,0.24,3.48,0.721c0.88,0.479,1.546,1.227,2,2.24
		c0.853-0.721,2.046-1.395,3.58-2.021c1.533-0.626,2.966-0.94,4.3-0.94c1.653,0,2.946,0.314,3.88,0.94
		c0.933,0.626,1.593,1.6,1.98,2.92c0.386,1.319,0.58,3.087,0.58,5.3v11.24l2.88,0.359v1.961h-9.52v-1.961l2.48-0.359v-11.12
		c0-1.546-0.113-2.78-0.34-3.7s-0.654-1.605-1.28-2.061c-0.627-0.453-1.527-0.68-2.7-0.68c-0.88,0-1.813,0.194-2.8,0.58
		c-0.987,0.387-1.827,0.848-2.52,1.381c0.24,1.039,0.36,2.52,0.36,4.439v11.16l2.84,0.359v1.961H92.5v-1.961l2.64-0.359v-11.2
		c0-1.601-0.1-2.84-0.3-3.72c-0.2-0.881-0.58-1.54-1.14-1.98c-0.56-0.439-1.414-0.66-2.56-0.66c-0.96,0-1.98,0.24-3.06,0.721
		c-1.08,0.479-2.02,1.039-2.82,1.68v15.16l2.68,0.359v1.961h-9.32V116.576z"/>
	<path fill="#FFFFFF" d="M121.58,99.416l-3.04-0.719v-2.121l6.2-0.76h0.08l0.92,0.721v19.72l3.2,0.319v1.961h-10.6v-1.961
		l3.24-0.359V99.416z M121.26,91.617c-0.427-0.48-0.64-1.093-0.64-1.84c0-0.854,0.26-1.56,0.78-2.12c0.52-0.56,1.233-0.84,2.14-0.84
		c0.906,0,1.573,0.24,2,0.72c0.426,0.48,0.64,1.094,0.64,1.84c0,0.907-0.26,1.627-0.78,2.16c-0.52,0.534-1.247,0.8-2.18,0.8h-0.04
		C122.326,92.336,121.686,92.097,121.26,91.617z"/>
	<path fill="#FFFFFF" d="M134.18,99.416l-2.88-0.719v-2.16l5.72-0.721h0.12l0.84,0.721v1.68l-0.04,0.96
		c0.96-0.853,2.226-1.626,3.8-2.32c1.573-0.692,3.08-1.04,4.52-1.04c1.68,0,2.98,0.32,3.9,0.961c0.92,0.639,1.566,1.619,1.94,2.939
		c0.373,1.32,0.56,3.1,0.56,5.34v11.2l2.8,0.28v2h-9.48v-1.961l2.48-0.319v-11.24c0-1.573-0.107-2.806-0.32-3.7
		c-0.214-0.893-0.614-1.56-1.2-2c-0.587-0.439-1.44-0.66-2.56-0.66c-0.96,0-1.987,0.24-3.08,0.721
		c-1.094,0.479-2.067,1.039-2.92,1.68v15.16l2.72,0.359v1.961h-9.44v-1.961l2.52-0.359V99.416z"/>
	<path fill="#FFFFFF" d="M160.799,115.816c-1.693-2.105-2.54-4.92-2.54-8.439c0-2.32,0.44-4.36,1.32-6.12
		c0.88-1.761,2.113-3.12,3.7-4.08c1.586-0.96,3.393-1.44,5.42-1.44c2.48,0,4.406,0.687,5.78,2.06c1.373,1.373,2.1,3.34,2.18,5.9
		c0,1.627-0.094,2.866-0.28,3.719h-13.76c0.053,2.641,0.666,4.768,1.84,6.381c1.173,1.613,2.84,2.42,5,2.42
		c1.066,0,2.18-0.193,3.34-0.58c1.16-0.387,2.06-0.846,2.7-1.38l0.76,1.76c-0.774,0.8-1.92,1.493-3.44,2.079
		c-1.52,0.588-3.067,0.881-4.64,0.881C164.952,118.977,162.492,117.924,160.799,115.816z M172.259,105.297
		c0.08-0.561,0.12-1.133,0.12-1.721c-0.027-1.732-0.394-3.1-1.1-4.1c-0.707-1-1.82-1.5-3.34-1.5c-1.547,0-2.78,0.561-3.7,1.68
		c-0.92,1.121-1.447,3-1.58,5.641H172.259z"/>
	<path fill="#FFFFFF" d="M192.939,91.296l-3.12-0.48v-2h5.24c0.827,0,2.013-0.053,3.56-0.16c1.546-0.106,2.707-0.16,3.48-0.16
		c4.96,0,8.646,1.247,11.06,3.74c2.413,2.494,3.62,5.994,3.62,10.5c0,3.146-0.62,5.94-1.86,8.381c-1.24,2.439-2.98,4.34-5.22,5.699
		c-2.24,1.359-4.813,2.041-7.72,2.041c-0.64,0-1.734-0.055-3.28-0.16c-1.6-0.107-2.8-0.16-3.6-0.16h-5.48v-1.961l3.32-0.399V91.296z
		 M200.779,116.617h1.2c2-0.027,3.766-0.533,5.3-1.521c1.533-0.986,2.726-2.46,3.58-4.42c0.853-1.96,1.28-4.341,1.28-7.14
		c0-4.213-0.914-7.414-2.74-9.601c-1.827-2.186-4.58-3.28-8.26-3.28c-0.773,0-1.694,0.054-2.76,0.16
		c-0.454,0.08-0.854,0.12-1.2,0.12v25.36C198.112,116.51,199.312,116.617,200.779,116.617z"/>
	<path fill="#FFFFFF" d="M219.938,116.576l3.32-0.399v-24.88l-3.12-0.52v-1.96h5.24c0.747,0,1.76-0.053,3.04-0.16
		c1.333-0.106,2.374-0.16,3.12-0.16c3.92,0,6.713,0.634,8.38,1.9c1.667,1.267,2.5,3.26,2.5,5.98c0,1.894-0.527,3.627-1.58,5.199
		c-1.054,1.574-2.5,2.641-4.34,3.201c0.853,0.453,1.646,1.232,2.38,2.34c0.733,1.106,1.633,2.646,2.7,4.619
		c0.826,1.494,1.46,2.588,1.9,3.28c0.44,0.694,0.86,1.08,1.26,1.16l1.56,0.399v1.961h-5.52c-0.427,0-0.907-0.461-1.44-1.381
		c-0.534-0.92-1.24-2.34-2.12-4.26c-0.96-2.105-1.794-3.779-2.5-5.02c-0.707-1.24-1.407-2.033-2.1-2.381
		c-2.854,0-4.547-0.013-5.08-0.039v10.72l3.96,0.399v1.961h-11.56V116.576z M236.339,101.656c0.986-1.119,1.48-2.785,1.48-5
		c0-1.946-0.5-3.433-1.5-4.459c-1-1.026-2.727-1.54-5.18-1.54c-0.854,0-1.707,0.054-2.56,0.16c-0.534,0.054-0.88,0.08-1.04,0.08
		v12.4c0.4,0.027,1.226,0.039,2.48,0.039h2.28C234.005,103.336,235.352,102.777,236.339,101.656z"/>
	<path fill="#FFFFFF" d="M267.878,116.916c-0.707-1.08-1.714-2.779-3.02-5.1c-0.16-0.293-0.607-1.086-1.34-2.38
		c-0.733-1.293-1.414-2.406-2.04-3.34c-0.627-0.933-1.18-1.667-1.66-2.2l-4.04,4.561v7.72l3.64,0.399v1.961h-11.24v-1.961
		l3.32-0.399v-24.88l-3.28-0.48v-2h10.88v2l-3.32,0.48v14l11.76-14l-3.36-0.48v-2h9.88v2l-3.08,0.48l-8.64,9.68
		c0.933,0.801,1.926,1.96,2.98,3.48c1.053,1.52,2.34,3.479,3.86,5.879c1.306,2.055,2.26,3.515,2.86,4.381
		c0.6,0.867,1.073,1.34,1.42,1.42l1.88,0.439v1.961h-5.72C269.165,118.537,268.584,117.996,267.878,116.916z"/>
	<path fill="#FFFFFF" d="M286.618,116.576l3.32-0.399v-24.88l-3.12-0.52v-1.96h5.24c0.747,0,1.76-0.053,3.04-0.16
		c1.333-0.106,2.374-0.16,3.12-0.16c3.92,0,6.713,0.634,8.38,1.9c1.667,1.267,2.5,3.26,2.5,5.98c0,1.894-0.527,3.627-1.58,5.199
		c-1.054,1.574-2.5,2.641-4.34,3.201c0.853,0.453,1.646,1.232,2.38,2.34c0.733,1.106,1.633,2.646,2.7,4.619
		c0.826,1.494,1.46,2.588,1.9,3.28c0.44,0.694,0.86,1.08,1.26,1.16l1.56,0.399v1.961h-5.52c-0.427,0-0.907-0.461-1.44-1.381
		c-0.534-0.92-1.24-2.34-2.12-4.26c-0.96-2.105-1.794-3.779-2.5-5.02c-0.707-1.24-1.407-2.033-2.1-2.381
		c-2.854,0-4.547-0.013-5.08-0.039v10.72l3.96,0.399v1.961h-11.56V116.576z M303.019,101.656c0.986-1.119,1.48-2.785,1.48-5
		c0-1.946-0.5-3.433-1.5-4.459c-1-1.026-2.727-1.54-5.18-1.54c-0.854,0-1.707,0.054-2.56,0.16c-0.534,0.054-0.88,0.08-1.04,0.08
		v12.4c0.4,0.027,1.226,0.039,2.48,0.039h2.28C300.685,103.336,302.031,102.777,303.019,101.656z"/>
	<path fill="#FFFFFF" d="M318.498,106.996c2.506-1.186,5.68-1.819,9.52-1.899v-1.12c0-1.253-0.134-2.24-0.4-2.96
		c-0.267-0.72-0.727-1.246-1.38-1.58c-0.653-0.333-1.58-0.5-2.78-0.5c-1.36,0-2.58,0.194-3.66,0.58
		c-1.08,0.387-2.154,0.86-3.22,1.42l-1-2.08c0.346-0.293,0.986-0.68,1.92-1.159c0.933-0.48,2.013-0.906,3.24-1.281
		c1.227-0.373,2.453-0.56,3.68-0.56c1.893,0,3.393,0.261,4.5,0.78c1.106,0.52,1.9,1.354,2.38,2.5s0.72,2.68,0.72,4.6v12.84h2.36
		v1.76c-0.534,0.135-1.207,0.268-2.02,0.4c-0.813,0.133-1.527,0.201-2.14,0.201c-0.747,0-1.253-0.115-1.52-0.342
		c-0.267-0.225-0.4-0.725-0.4-1.499v-1.319c-0.8,0.799-1.78,1.533-2.94,2.199s-2.474,1-3.94,1c-1.92,0-3.514-0.553-4.78-1.66
		c-1.267-1.105-1.9-2.699-1.9-4.779C314.738,110.03,315.991,108.184,318.498,106.996z M325.538,115.617
		c0.906-0.427,1.733-0.934,2.48-1.521v-6.88c-2.907,0-5.1,0.447-6.58,1.34c-1.48,0.894-2.22,2.061-2.22,3.5s0.354,2.5,1.06,3.18
		s1.66,1.021,2.86,1.021C323.831,116.257,324.631,116.043,325.538,115.617z"/>
	<path fill="#FFFFFF" d="M335.337,96.336h9.28v1.881l-2.84,0.52l4.04,11.521l1.68,5.079l1.44-4.92l4.04-11.68l-2.72-0.52v-1.881
		h8.12v1.881l-2.079,0.52l-7.72,20.121h-3.4l-8.04-20.121l-1.8-0.52V96.336z"/>
	<path fill="#FFFFFF" d="M362.357,115.816c-1.693-2.105-2.54-4.92-2.54-8.439c0-2.32,0.44-4.36,1.32-6.12
		c0.88-1.761,2.113-3.12,3.7-4.08c1.586-0.96,3.393-1.44,5.42-1.44c2.479,0,4.406,0.687,5.78,2.06c1.373,1.373,2.1,3.34,2.18,5.9
		c0,1.627-0.094,2.866-0.28,3.719h-13.76c0.053,2.641,0.666,4.768,1.84,6.381c1.173,1.613,2.84,2.42,5,2.42
		c1.066,0,2.18-0.193,3.34-0.58s2.061-0.846,2.7-1.38l0.76,1.76c-0.773,0.8-1.92,1.493-3.439,2.079
		c-1.521,0.588-3.067,0.881-4.641,0.881C366.511,118.977,364.051,117.924,362.357,115.816z M373.817,105.297
		c0.08-0.561,0.12-1.133,0.12-1.721c-0.026-1.732-0.394-3.1-1.1-4.1c-0.707-1-1.82-1.5-3.34-1.5c-1.547,0-2.78,0.561-3.7,1.68
		c-0.92,1.121-1.447,3-1.58,5.641H373.817z"/>
	<path fill="#FFFFFF" d="M384.058,99.416l-2.88-0.719v-2.16l5.72-0.721h0.12l0.84,0.721v1.68l-0.04,0.96
		c0.96-0.853,2.227-1.626,3.8-2.32c1.573-0.692,3.08-1.04,4.521-1.04c1.68,0,2.979,0.32,3.899,0.961
		c0.92,0.639,1.566,1.619,1.94,2.939c0.373,1.32,0.56,3.1,0.56,5.34v11.2l2.801,0.28v2h-9.48v-1.961l2.48-0.319v-11.24
		c0-1.573-0.107-2.806-0.32-3.7c-0.214-0.893-0.614-1.56-1.2-2c-0.587-0.439-1.44-0.66-2.56-0.66c-0.96,0-1.987,0.24-3.08,0.721
		c-1.094,0.479-2.067,1.039-2.92,1.68v15.16l2.72,0.359v1.961h-9.44v-1.961l2.521-0.359V99.416z"/>
	<path fill="#FFFFFF" d="M411.937,115.336c0.267,0.4,0.834,0.761,1.7,1.08c0.866,0.32,1.78,0.48,2.74,0.48
		c1.521,0,2.64-0.293,3.36-0.88c0.72-0.587,1.08-1.399,1.08-2.44c0-0.72-0.228-1.346-0.681-1.879s-1.087-1.007-1.899-1.42
		c-0.814-0.414-1.98-0.914-3.5-1.5c-2.054-0.773-3.554-1.701-4.5-2.781c-0.947-1.08-1.42-2.5-1.42-4.26
		c0-1.173,0.353-2.199,1.06-3.08c0.706-0.879,1.68-1.566,2.92-2.06s2.62-0.74,4.14-0.74c1.227,0,2.301,0.094,3.221,0.28
		c0.92,0.188,1.66,0.373,2.22,0.561c0.56,0.186,0.934,0.307,1.12,0.359v4.96h-2.44l-0.8-2.96c-0.16-0.32-0.587-0.594-1.28-0.82
		s-1.467-0.34-2.319-0.34c-1.2,0-2.167,0.268-2.9,0.801s-1.1,1.253-1.1,2.159c0,0.8,0.193,1.46,0.58,1.979
		c0.386,0.521,0.873,0.941,1.46,1.261c0.586,0.319,1.386,0.694,2.399,1.12l0.801,0.32c1.492,0.586,2.706,1.146,3.64,1.68
		c0.933,0.533,1.713,1.233,2.34,2.1c0.626,0.867,0.94,1.928,0.94,3.18c0,1.975-0.768,3.547-2.301,4.721s-3.634,1.76-6.3,1.76
		c-1.307,0-2.674-0.18-4.1-0.539c-1.427-0.361-2.594-0.727-3.5-1.102v-5.119h2.6L411.937,115.336z"/>
	<path fill="#FFFFFF" d="M426.536,86.537l6.4-0.76h0.08l0.92,0.6v12.04c0.8-0.772,1.753-1.412,2.859-1.92
		c1.106-0.506,2.34-0.759,3.7-0.759c1.601,0,3.061,0.386,4.38,1.16c1.32,0.773,2.373,1.975,3.16,3.6
		c0.786,1.627,1.18,3.681,1.18,6.16c0,2.294-0.474,4.374-1.42,6.24c-0.946,1.867-2.3,3.348-4.06,4.439
		c-1.76,1.094-3.8,1.641-6.12,1.641c-1.84,0-3.52-0.18-5.04-0.539c-1.52-0.361-2.44-0.688-2.76-0.98v-28.8l-3.28-0.44V86.537z
		 M436.036,99.277c-0.867,0.467-1.566,0.993-2.1,1.579v14.72c0.16,0.374,0.62,0.674,1.38,0.9s1.62,0.34,2.58,0.34
		c2.053,0,3.706-0.826,4.96-2.48c1.253-1.652,1.88-4.065,1.88-7.239c0-2.853-0.547-4.986-1.64-6.399
		c-1.094-1.414-2.508-2.121-4.24-2.121C437.843,98.576,436.902,98.811,436.036,99.277z"/>
	<path fill="#FFFFFF" d="M469.236,118.457c-0.359-0.293-0.54-0.773-0.54-1.44v-1.36c-0.88,0.881-1.979,1.654-3.3,2.32
		s-2.646,1-3.98,1c-2.479,0-4.239-0.666-5.279-2c-1.04-1.333-1.561-3.533-1.561-6.6v-11.6l-2.239-0.641v-1.76l5.6-0.521h0.04
		l0.76,0.479v13.721c0,1.547,0.113,2.754,0.34,3.62s0.627,1.507,1.2,1.92s1.406,0.62,2.5,0.62c1.066,0,2.066-0.227,3-0.68
		s1.746-0.986,2.44-1.601V98.777l-2.88-0.641v-1.76l6.079-0.521h0.04l0.921,0.479v20.16h2.399l-0.04,1.801
		c-0.747,0.188-1.394,0.332-1.939,0.439c-0.547,0.107-1.181,0.16-1.9,0.16C470.149,118.896,469.597,118.75,469.236,118.457z"/>
	<path fill="#FFFFFF" d="M478.056,116.576l3-0.24v-16.92l-2.88-0.719v-2.16l5.52-0.721h0.08l0.881,0.721v0.72l-0.12,3.12h0.12
		c0.266-0.453,0.746-1.041,1.439-1.76c0.693-0.721,1.586-1.381,2.68-1.98s2.28-0.9,3.561-0.9c0.533,0,0.973,0.067,1.32,0.2v4.479
		c-0.188-0.133-0.487-0.26-0.9-0.379c-0.414-0.121-0.874-0.181-1.38-0.181c-2.214,0-4.267,0.681-6.16,2.04v14.4l5.08,0.32v1.92
		h-12.24V116.576z"/>
	<path fill="#FFFFFF" d="M498.436,127.717c-1.534-1.08-2.301-2.566-2.301-4.461c0-1.174,0.366-2.254,1.101-3.238
		c0.732-0.988,1.606-1.734,2.62-2.24c-1.228-0.693-1.841-1.814-1.841-3.361c0-0.959,0.28-1.865,0.841-2.719
		c0.56-0.854,1.293-1.507,2.199-1.961c-1.333-0.586-2.354-1.426-3.06-2.52c-0.707-1.094-1.06-2.387-1.06-3.881
		c0-1.545,0.433-2.893,1.3-4.039c0.866-1.146,2.013-2.026,3.439-2.641c1.427-0.613,2.94-0.919,4.54-0.919
		c2.693,0,4.8,0.56,6.32,1.679c0.4-0.399,1.013-0.785,1.84-1.159c0.826-0.374,1.706-0.56,2.64-0.56h1.36v3.52h-4.399
		c0.64,0.986,0.96,2.134,0.96,3.439c0,1.574-0.395,2.967-1.181,4.18c-0.787,1.215-1.88,2.154-3.279,2.82c-1.4,0.668-2.98,1-4.74,1
		c-1.147,0-2.174-0.119-3.08-0.359c-0.374,0.373-0.68,0.787-0.92,1.24s-0.36,0.893-0.36,1.319c0,0.96,0.32,1.62,0.96,1.979
		c0.641,0.361,1.786,0.541,3.44,0.541h4.52c2.587,0,4.507,0.494,5.76,1.479c1.254,0.987,1.881,2.386,1.881,4.2
		c0,1.52-0.547,2.914-1.641,4.18s-2.566,2.266-4.42,3s-3.86,1.1-6.02,1.1C502.441,129.336,499.968,128.797,498.436,127.717z
		 M509.915,126.438c1.16-0.389,2.1-0.961,2.82-1.721c0.72-0.76,1.08-1.646,1.08-2.66c0-1.199-0.32-2.074-0.96-2.619
		c-0.641-0.547-1.88-0.82-3.721-0.82h-4.72c-1.066,0-1.907-0.068-2.52-0.201c-1.094,1.201-1.641,2.547-1.641,4.041
		c0,1.492,0.453,2.625,1.36,3.4c0.906,0.771,2.439,1.16,4.6,1.16C507.521,127.018,508.755,126.822,509.915,126.438z
		 M510.695,103.057c0-1.786-0.394-3.1-1.181-3.939c-0.786-0.84-1.967-1.261-3.539-1.261c-1.468,0-2.627,0.407-3.48,1.22
		c-0.854,0.814-1.28,2.114-1.28,3.9c0,1.68,0.406,3.014,1.221,4c0.813,0.986,2.046,1.48,3.699,1.48
		C509.175,108.457,510.695,106.656,510.695,103.057z"/>
	<path fill="#FFFFFF" d="M532.516,115.816c-1.693-2.105-2.54-4.92-2.54-8.439c0-2.32,0.44-4.36,1.32-6.12
		c0.88-1.761,2.113-3.12,3.7-4.08c1.586-0.96,3.393-1.44,5.42-1.44c2.479,0,4.406,0.687,5.78,2.06c1.373,1.373,2.1,3.34,2.18,5.9
		c0,1.627-0.094,2.866-0.28,3.719h-13.76c0.053,2.641,0.666,4.768,1.84,6.381c1.173,1.613,2.84,2.42,5,2.42
		c1.066,0,2.18-0.193,3.34-0.58s2.061-0.846,2.7-1.38l0.76,1.76c-0.773,0.8-1.92,1.493-3.439,2.079
		c-1.521,0.588-3.067,0.881-4.641,0.881C536.669,118.977,534.209,117.924,532.516,115.816z M543.976,105.297
		c0.08-0.561,0.12-1.133,0.12-1.721c-0.026-1.732-0.394-3.1-1.1-4.1c-0.707-1-1.82-1.5-3.34-1.5c-1.547,0-2.78,0.561-3.7,1.68
		c-0.92,1.121-1.447,3-1.58,5.641H543.976z"/>
	<path fill="#FFFFFF" d="M553.296,118.217c-0.507-0.48-0.761-1.094-0.761-1.84c0-0.826,0.301-1.521,0.9-2.08
		c0.6-0.561,1.3-0.84,2.1-0.84c0.827,0,1.461,0.246,1.9,0.74c0.44,0.493,0.66,1.1,0.66,1.819c0,0.88-0.294,1.587-0.88,2.12
		c-0.587,0.533-1.294,0.801-2.12,0.801C554.402,118.938,553.802,118.697,553.296,118.217z"/>
	<path fill="#FFFFFF" d="M559.976,88.816h10.64v2l-3.56,0.48l6.6,18.76l1.479,4.88l1.32-4.96l5.96-18.68l-3.16-0.48v-2h8.92v2
		l-2.56,0.48l-9.48,27.561h-3.479l-10.24-27.561l-2.439-0.48V88.816z"/>
	<path fill="#FFFFFF" d="M590.695,118.217c-0.507-0.48-0.761-1.094-0.761-1.84c0-0.826,0.301-1.521,0.9-2.08
		c0.6-0.561,1.3-0.84,2.1-0.84c0.827,0,1.461,0.246,1.9,0.74c0.44,0.493,0.66,1.1,0.66,1.819c0,0.88-0.294,1.587-0.88,2.12
		c-0.587,0.533-1.294,0.801-2.12,0.801C591.802,118.938,591.201,118.697,590.695,118.217z"/>
</g>
</svg>
